<?xml version="1.0" standalone="no"?>
<!DOCTYPE svg PUBLIC "-//W3C//DTD SVG 1.1//EN" "http://www.w3.org/Graphics/SVG/1.1/DTD/svg11.dtd" >
<svg xmlns="http://www.w3.org/2000/svg">
<metadata>
This is a custom SVG webfont generated by Font Squirrel.
Copyright   : Created by pierolalune
</metadata>
<defs>
<font id="fontomasRegular" horiz-adv-x="2048" >
<font-face units-per-em="2048" ascent="1638" descent="-410" />
<missing-glyph horiz-adv-x="500" />
<glyph unicode=" " />
<glyph unicode="!" d="M308 0v1228q0 86 60 146t144 60h1228v-1638h-1228q-84 0 -144 60t-60 144zM716 0h820v1228h-204v-412l-208 206l-204 -204v410h-204v-1228z" />
<glyph unicode="&#x22;" />
<glyph unicode="#" d="M236 220q0 156 140 316q40 38 384 384q368 366 448 444q100 102 220 102q24 0 76 -12q76 -22 132 -76q56 -58 76 -134q12 -32 12 -78q0 -116 -100 -216l-796 -794q-68 -74 -148 -78h-24q-64 0 -108 44q-48 36 -48 112v14q6 80 76 156l560 558q24 22 44 22q18 0 36 -22 q24 -22 24 -42q0 -22 -24 -44l-556 -556q-48 -48 -48 -82q0 -18 16 -32q12 -12 40 -12q32 2 76 42l796 796q64 68 64 136q0 24 -8 44q-24 102 -128 128q-20 6 -44 6q-68 0 -132 -64l-832 -832q-104 -122 -104 -230v-6q2 -110 88 -196q80 -84 192 -86h8q112 0 232 102 l828 832q20 22 40 22q24 0 44 -20q24 -22 24 -42t-24 -42l-832 -834q-136 -136 -308 -136q-168 0 -288 120q-124 122 -124 286z" />
<glyph unicode="$" d="M36 638q0 356 252 610q248 252 604 252q350 0 600 -246q250 -248 260 -594h260l-388 -428l-384 428h296q-8 258 -196 442q-184 182 -448 182q-268 0 -452 -188q-188 -188 -188 -458q0 -266 188 -456q184 -188 452 -188q214 0 384 124l148 -158q-240 -182 -532 -182 q-356 0 -604 252q-252 254 -252 608z" />
<glyph unicode="%" />
<glyph unicode="&#x26;" d="M408 0q0 254 180 434t434 180t434 -180q184 -182 184 -434q0 -84 -60 -144t-148 -60h-816q-88 0 -148 60t-60 144zM716 1126q0 308 308 308t308 -308q0 -306 -308 -306t-308 306z" />
<glyph unicode="'" d="M542 372l482 484l482 -484h-964z" />
<glyph unicode="(" d="M204 256v614q0 254 180 434t436 180v-204q-172 0 -292 -120t-120 -290h412v-614h-616zM1228 256v614q0 254 180 434t436 180v-204q-172 0 -292 -120t-120 -290h412v-614h-616z" />
<glyph unicode=")" d="M204 256v204q170 0 290 120t120 290h-410v614h616v-614q0 -254 -181 -434t-435 -180zM1228 256v204q170 0 290 120t120 290h-410v614h616v-614q0 -254 -181 -434t-435 -180z" />
<glyph unicode="*" d="M164 802q0 36 80 36h558l170 530q20 66 52 66q38 -16 52 -66l174 -530h554q80 0 80 -36q0 -24 -46 -62l-452 -328l172 -528q8 -24 8 -50q0 -38 -28 -38t-62 28l-452 326l-450 -326q-40 -28 -64 -28q-30 0 -30 36q0 16 10 52l172 528l-450 328q-48 32 -48 62z" />
<glyph unicode="+" d="M204 614q0 224 110 412t298 298t412 110t412 -110t298 -298t110 -412q0 -222 -110 -410q-112 -190 -298 -300q-184 -108 -412 -108t-412 108q-186 110 -298 300q-110 188 -110 410zM614 512h308v-308h204v308h308v204h-308v308h-204v-308h-308v-204z" />
<glyph unicode="," d="M540 856h968l-484 -484z" />
<glyph unicode="-" d="M204 614q0 224 110 412t298 298t412 110t412 -110t298 -298t110 -412q0 -222 -110 -410q-112 -190 -298 -300q-184 -108 -412 -108t-412 108q-186 110 -298 300q-110 188 -110 410zM614 512h820v204h-820v-204z" />
<glyph unicode="." />
<glyph unicode="/" d="M204 -178l108 498l608 604l528 532q12 2 28 2q108 0 238 -130t130 -238q0 -20 -4 -28l-528 -528l-608 -608zM336 118q70 -36 96 -70q40 -40 76 -98l168 40l48 44q-2 90 -104 198q-46 48 -96 74t-76 32l-28 4l-48 -52z" />
<glyph unicode="0" d="M604 206v866q0 50 28 64q8 6 24 6q18 0 44 -16l716 -442q28 -20 28 -46l-28 -44l-716 -442q-26 -16 -44 -16q-16 0 -24 6q-28 14 -28 64z" />
<glyph unicode="1" d="M580 158v958q0 110 148 110q152 0 152 -110v-958q0 -108 -152 -108q-148 0 -148 108zM1168 158v958q0 110 148 110q152 0 152 -110v-958q0 -108 -152 -108q-148 0 -148 108z" />
<glyph unicode="2" d="M436 638q0 246 172 418q170 170 418 170q240 0 412 -170q174 -172 174 -418t-174 -416q-172 -170 -412 -170q-248 0 -418 170q-172 172 -172 416z" />
<glyph unicode="3" d="M520 242v790q0 110 124 110h4h754q126 0 126 -110v-790q0 -106 -122 -106h-4h-754h-4q-124 0 -124 106z" />
<glyph unicode="4" d="M272 240q0 18 44 46l1344 760q24 14 48 14q22 0 36 -8q32 -20 32 -74v-628q0 -56 -36 -94q-40 -40 -96 -40h-1308q-64 0 -64 24z" />
<glyph unicode="5" d="M282 -18q0 32 28 60l1312 1312q28 28 58 28t58 -28q28 -24 28 -60q0 -34 -28 -56l-1312 -1312q-22 -22 -56 -26q-34 0 -60 26q-28 24 -28 56zM436 526q0 146 72 306q116 256 222 362q34 32 96 32q34 0 80 -12q118 -34 266 -142l-88 -86q-60 42 -128 72q-64 28 -94 30 q-36 4 -50 -2q-6 -14 -2 -50t32 -96q38 -80 70 -130l-452 -452q-24 82 -24 168zM726 56l466 466q88 -62 148 -92q76 -36 112 -42t56 2q8 20 2 56q-6 38 -42 114q-26 54 -92 146l84 84q124 -150 170 -288q20 -58 20 -106q0 -54 -32 -90q-40 -40 -124 -94t-220 -116 q-140 -64 -272 -76q-18 -2 -54 -2q-110 0 -222 38z" />
<glyph unicode="6" d="M260 368q0 130 52 252q64 150 132 260q68 114 112 156q30 34 92 34t156 -42q176 -80 360 -266q186 -186 268 -364q40 -96 40 -160q0 -58 -32 -90q-40 -40 -152 -112q-100 -62 -264 -128q-120 -50 -256 -50q-44 0 -68 2q-170 14 -295 142t-141 296q-4 48 -4 70zM632 906 q0 -26 8 -58q14 -62 81 -170t159 -200q98 -98 200 -162q102 -62 172 -82q36 -10 56 -10q18 0 24 8q4 6 4 22q0 18 -8 58q-20 70 -84 170q-66 108 -159 200t-201 160t-168 82q-32 8 -60 8q-16 0 -20 -4t-4 -22zM996 1176q0 20 12 40l88 162q14 28 52 38q8 2 24 2q24 0 40 -10 q28 -14 40 -50q4 -16 4 -26q0 -20 -8 -40l-92 -160q-28 -44 -76 -44q-24 0 -36 14q-34 14 -44 48q-4 16 -4 26zM1260 976q-2 32 24 60l160 160q22 26 56 26q36 0 62 -26t26 -60t-28 -58l-156 -160q-24 -24 -60 -24t-60 24q-24 22 -24 58zM1456 718q0 14 4 22q8 36 36 50 l164 90q24 14 48 14q42 0 68 -48q12 -26 12 -46q0 -40 -44 -68l-164 -90q-22 -10 -40 -10q-50 0 -72 44q-12 20 -12 42z" />
<glyph unicode="7" />
<glyph unicode="8" d="M268 666l604 544v-326q520 0 792 -510q84 -166 116 -306q-146 256 -352 330q-204 74 -556 74v-368z" />
<glyph unicode="9" d="M268 68q4 20 24 90q14 54 84 194q68 138 160 246q94 108 264 198q164 88 376 88v326l604 -542l-604 -564v368q-352 0 -556 -74q-206 -74 -352 -330z" />
<glyph unicode=":" />
<glyph unicode=";" d="M184 292q0 60 56 90l268 180h164l-284 -218h296q12 0 20 -10l68 -188h504l68 188q4 10 20 10h296l-284 218h164l268 -180q56 -34 56 -90q0 -8 -4 -28l-48 -260q-4 -32 -36 -56q-34 -24 -64 -24h-1372q-32 0 -64 24q-32 22 -40 56l-48 260q-4 20 -4 28zM572 936h252v414 h404v-414h248l-452 -426z" />
<glyph unicode="&#x3c;" d="M354 614l1024 1024l316 -314l-708 -710l708 -708l-316 -316z" />
<glyph unicode="=" />
<glyph unicode="&#x3e;" d="M354 -94l708 708l-708 710l316 314l1024 -1024l-1024 -1024z" />
<glyph unicode="?" d="M252 638q0 312 220 538q220 228 540 234h8q316 0 540 -218q228 -222 236 -544v-10q0 -314 -220 -538q-224 -230 -540 -232h-20q-308 0 -528 218q-236 230 -236 552zM720 810h184v10q0 48 28 90q26 40 84 40h4q68 0 92 -32q24 -34 24 -78q0 -28 -28 -66q-10 -22 -32 -32 l-8 -6l-28 -18l-32 -24l-36 -32l-28 -30q-26 -28 -32 -128v-16h180v6q0 22 8 52q6 24 48 56l48 34q72 60 88 80q44 56 44 134q0 134 -88 196q-92 64 -228 64q-96 0 -172 -48q-112 -70 -120 -242v-10zM896 276q0 -42 29 -72t83 -36h4q42 0 76 32q34 30 36 76q0 112 -112 118 h-4q-46 0 -80 -32q-32 -30 -32 -86z" />
<glyph unicode="@" d="M268 232v616q0 20 2 22t30 -4q10 -6 49 -26t119 -61t164 -85t161 -84t113 -60t42 -22q34 -16 76 -16q38 0 72 16q32 12 320 164q84 46 162 86t119 62t51 26q32 14 32 -18v-616q0 -26 -28 -52q-32 -28 -56 -28h-1344q-28 0 -56 28t-28 52zM272 1094v12q8 20 40 20h1420 q32 0 40 -20q4 -8 4 -12q0 -12 -12 -28q-14 -22 -36 -30q-624 -336 -632 -340q-34 -16 -72 -16q-42 0 -76 16q-8 4 -632 340q-20 8 -36 30q-8 12 -8 28z" />
<glyph unicode="A" />
<glyph unicode="B" />
<glyph unicode="C" d="M268 52v1006q0 66 48 118q48 50 120 50h76v-168h268v168h488v-168h264v168h80q68 0 118 -50t50 -118v-1006q0 -72 -52 -120q-50 -48 -116 -48h-1176q-72 0 -120 48t-48 120zM436 52h1176v670h-1176v-670zM588 1110v284h120v-284h-120zM1344 1110v284h116v-284h-116z" />
<glyph unicode="D" />
<glyph unicode="E" />
<glyph unicode="F" d="M196 820q0 268 188 456q192 188 460 188q272 0 470 -198t198 -468q0 -184 -92 -336l392 -398q40 -40 40 -74q0 -28 -24 -52l-96 -100q-36 -34 -72 -34q-32 0 -72 34l-400 398q-156 -88 -328 -88q-264 0 -468 202q-196 198 -196 470zM396 820q0 -188 140 -328 q144 -142 324 -142q192 0 324 132t132 316t-144 328q-144 142 -328 142t-316 -132t-132 -316z" />
<glyph unicode="G" />
<glyph unicode="H" d="M268 578q0 14 20 34l674 674q24 28 60 28h2q38 0 62 -28l676 -674q18 -18 18 -34q0 -6 -2 -10q-10 -20 -48 -20h-140v-516q0 -28 -2 -36q-2 -10 -14 -22q-10 -10 -34 -10h-342v518h-342v-518h-330q-30 0 -46 10q-18 12 -20 22q-2 8 -2 36v516h-140q-34 0 -46 18 q-4 8 -4 12z" />
<glyph unicode="I" d="M194 824q12 24 34 30l1140 416q16 6 30 6q36 0 50 -44l176 -474h-168l-208 252l-364 -252h-298q-88 0 -152 -64q-62 -62 -62 -154v-270l-182 500q-4 10 -4 20q0 17 8 34zM522 -252v792q0 22 20 46q18 20 44 20h1212q28 0 44 -20q20 -24 20 -46v-792q0 -24 -18 -46 q-16 -20 -46 -20h-1212q-26 0 -44 20q-20 24 -20 46zM702 -4v-144h1006v268l-122 272l-282 -102l-218 -224l-230 288z" />
<glyph unicode="J" />
<glyph unicode="K" />
<glyph unicode="L" d="M184 34q0 162 120 278l312 310q148 148 302 166q14 2 42 2q128 0 224 -98q32 -30 32 -70q4 -40 -32 -76q-30 -34 -74 -34h-2q-44 0 -72 34q-38 38 -84 38q-78 0 -188 -110l-316 -310q-52 -52 -52 -124q0 -80 52 -140q54 -54 134 -54h2q80 0 134 54l84 88q34 32 72 32 t74 -36q34 -30 34 -76q0 -42 -34 -70l-84 -84q-116 -114 -280 -114h-2q-162 0 -278 114q-120 118 -120 280zM832 326q0 38 36 74q28 28 72 28q46 0 76 -28q40 -40 88 -40q74 0 164 90l336 330q54 54 54 126q0 78 -54 138q-78 68 -142 68q-52 0 -106 -50l-104 -106 q-34 -32 -72 -32q-40 0 -76 38q-28 28 -28 70q12 58 28 76l104 104q106 104 254 104h12q158 -6 276 -124q110 -110 114 -280q0 -164 -114 -278l-336 -332q-154 -154 -314 -154q-134 0 -232 104q-36 40 -36 74z" />
<glyph unicode="M" />
<glyph unicode="N" d="M204 -202v720h720v-720h-720zM204 714v722h720v-722h-720zM400 -6h328v328h-328v-328zM400 912h328v328h-328v-328zM1124 60h720v-262h-720v262zM1124 256v262h720v-262h-720zM1124 714v262h720v-262h-720zM1124 1174v262h720v-262h-720z" />
<glyph unicode="O" d="M184 822q0 30 12 48q16 22 68 22h1522q56 0 68 -22q10 -16 10 -48v-16l-72 -754q-2 -42 -18 -64q-14 -20 -72 -20h-1354q-56 0 -70 20q-16 24 -22 64l-70 754q0 2 -1 8t-1 8zM326 1008l26 218q6 36 32 60q28 24 60 24h276q84 0 144 -60l48 -48q60 -60 144 -60h572 q36 0 64 -20t38 -48l16 -66h-1420z" />
<glyph unicode="P" d="M202 444v294q0 40 28 70q30 32 62 32h1460q34 0 64 -32t30 -70v-294q0 -32 -30 -66t-64 -34h-164l72 -420h-1274l74 420h-168q-32 0 -62 34q-28 30 -28 66zM272 962q0 6 2 10q6 16 18 18q130 50 172 64q132 44 164 44h78v252h638v-252h72q32 0 164 -44q42 -14 172 -64 q12 -2 18 -18q2 -4 2 -8q0 -12 -6 -20q-8 -14 -32 -14h-1424q-20 0 -32 14q-6 8 -6 18zM554 92h940l-118 546h-704z" />
<glyph unicode="Q" d="M184 430v734q0 84 60 146t152 62h1256q88 0 150 -62t62 -146v-734q0 -90 -64 -150q-62 -60 -148 -60h-420v-314l-416 314h-420q-92 0 -152 60t-60 150z" />
<glyph unicode="R" />
<glyph unicode="S" />
<glyph unicode="T" d="M352 136v502h168v-502h504v-168h-504q-72 0 -120 48t-48 120zM688 472v670q0 72 48 120t116 48h676q68 0 118 -50t50 -118v-670q0 -72 -52 -120q-50 -48 -116 -48h-672q-72 0 -120 48t-48 120zM856 472h672v670h-672v-670z" />
<glyph unicode="U" />
<glyph unicode="V" d="M204 614q0 228 108 412q112 188 300 298q186 110 411 110t413 -110q186 -110 296 -298q112 -188 112 -412q0 -222 -112 -410q-112 -190 -296 -300q-184 -108 -413 -108t-411 108q-186 110 -300 300q-108 184 -108 410zM520 614l376 -378l636 638l-144 144l-492 -492 l-232 232z" />
<glyph unicode="W" />
<glyph unicode="X" d="M204 614q0 228 108 412q112 188 300 298q186 110 411 110t413 -110q186 -110 296 -298q112 -188 112 -412q0 -222 -112 -410q-112 -190 -296 -300q-184 -108 -413 -108t-411 108q-186 110 -300 300q-108 184 -108 410zM620 354l144 -144l260 260l260 -260l144 144 l-260 260l260 260l-144 146l-260 -260l-260 260l-144 -146l260 -260z" />
<glyph unicode="Y" />
<glyph unicode="Z" />
<glyph unicode="[" d="M184 68v924q0 36 24 60q24 22 60 22h484q-74 -58 -100 -82q-54 -46 -64 -64l-20 -20h-216v-756h1092v90l168 142v-316q0 -34 -24 -58t-60 -24h-1260q-36 0 -60 24t-24 58zM628 360q0 22 4 38q6 56 12 96q12 70 36 132q26 64 75 140t121 134q64 54 180 94q108 38 248 38 v260l560 -418l-560 -436v298q-276 0 -408 -70q-122 -66 -268 -306z" />
<glyph unicode="\" />
<glyph unicode="]" d="M244 618q0 176 92 326q90 152 240 238q150 88 328 88q242 0 456 -194l-136 -140q-154 138 -320 138q-192 0 -328 -138q-136 -134 -136 -332q0 -184 138 -316t326 -132q174 0 320 134l140 -140q-202 -190 -444 -190q-286 0 -480 188q-196 190 -196 470zM900 500v230h540 v232l364 -348l-364 -346v232h-540z" />
<glyph unicode="^" d="M184 294q0 60 56 90l268 182h164l-284 -222h296q18 0 20 -10l72 -188h500l68 188q8 10 20 10h296l-284 222h168l264 -182q56 -32 56 -88q0 -8 -4 -32l-44 -258q-8 -36 -36 -56q-32 -22 -68 -22h-1368q-84 0 -108 78l-48 258q-4 20 -4 30zM572 928l452 426l456 -426h-252 v-414h-404v414h-252z" />
<glyph unicode="_" />
<glyph unicode="`" />
<glyph unicode="a" />
<glyph unicode="b" d="M268 236v1074q0 42 40 72q24 12 44 12t36 -6l636 -256l640 256q20 6 36 6q24 0 48 -12q32 -26 32 -72v-1074q0 -54 -52 -78l-668 -268q-12 -2 -20 -6h-16h-12l-16 6l-672 268q-56 24 -56 78zM404 270l536 -214v938l-536 216v-940zM504 468v114l340 -134v-114zM504 818 v112l340 -134v-112zM1108 56l536 214v940l-536 -216v-938zM1208 334v114l340 134v-114zM1208 684v112l340 134v-112z" />
<glyph unicode="c" d="M204 -68q0 56 40 96l820 820q-40 84 -40 176q0 170 120 290t288 120q56 0 120 -20l-256 -254v-272h272l256 256q20 -64 20 -120q0 -170 -121 -290t-291 -120q-86 0 -172 42l-820 -820q-40 -40 -100 -40q-56 0 -96 40t-40 96z" />
<glyph unicode="d" />
<glyph unicode="e" />
<glyph unicode="f" d="M204 -60v1350q0 60 42 102t102 42h1352q60 0 102 -42t42 -102v-1350q0 -60 -42 -102t-102 -42h-1352q-60 0 -102 42t-42 102zM960 638h132v-654h244v654h192l16 190h-208v58v70v18q0 70 96 70q48 0 104 -16l32 192q-74 26 -232 26q-132 0 -204 -96q-40 -58 -40 -194v-10 v-60v-58h-132v-190z" />
<glyph unicode="g" d="M204 -60v1350q0 60 42 102t102 42h1352q60 0 102 -42t42 -102v-1350q0 -60 -42 -102t-102 -42h-1352q-60 0 -102 42t-42 102zM396 282q0 -130 100 -188q104 -62 236 -62q146 0 260 76q112 76 112 218q0 64 -32 120q-34 58 -72 90q-56 46 -72 62q-32 28 -32 48q0 18 24 42 q16 14 56 46q30 24 56 78q24 52 24 120q0 124 -72 176q8 0 24 2q6 0 14 1t12 2t6 1q4 0 13 4t15 6q22 8 28 16q8 16 8 24q0 18 -36 18q-2 0 -12 1t-31 1h-45h-68h-48q-40 0 -100 -6t-96 -18q-92 -28 -152 -102q-56 -68 -56 -166q0 -116 72 -186q68 -68 180 -68h4h12 q0 -34 4 -58q2 -18 8 -18l12 -10q8 -8 12 -22q-92 0 -168 -20q-78 -22 -139 -81t-61 -147zM552 312q0 80 64 118q66 38 152 38q78 0 140 -38q64 -40 64 -108q0 -72 -72 -118q-66 -44 -148 -44q-74 0 -140 40q-60 38 -60 112zM624 972q0 56 24 98q22 40 80 40q28 -6 43 -11 t34 -21t35 -42q40 -76 40 -150q0 -52 -24 -98q-24 -40 -80 -40q-70 0 -112 74q-40 74 -40 150zM1156 898h200v-198h100v198h196v98h-196v200h-100v-200h-200v-98z" />
<glyph unicode="h" d="M252 638q0 314 218 538q222 228 540 234h10q314 0 538 -218q228 -222 238 -544v-10q0 -314 -222 -538q-222 -230 -540 -232h-20q-308 0 -528 218q-234 228 -234 552zM352 644q0 -178 74 -314l174 104q-46 90 -46 202q0 116 46 208l-174 102q-74 -140 -74 -302zM654 638 q0 -152 108 -260t260 -108q150 0 262 108q108 106 108 260t-108 262t-262 108q-152 0 -260 -108t-108 -262zM712 40q146 -72 306 -72h12q154 0 302 78l-104 170q-100 -48 -206 -48t-206 48zM712 1232l104 -170q100 48 206 48q104 0 206 -48l104 170q-142 74 -320 78 q-162 -8 -300 -78zM1442 434l176 -104q76 140 76 318q-4 164 -76 298l-176 -102q50 -98 50 -204q1 -11 1 -23q0 -83 -51 -183z" />
<glyph unicode="i" d="M252 630v11q0 315 220 537q226 230 540 232h18q312 0 532 -218q232 -228 234 -542v-12q0 -310 -220 -536q-224 -228 -542 -234h-10q-314 0 -538 218q-228 222 -234 544zM752 632l26 -48q80 58 128 58q12 0 0 -58l-64 -250q-14 -54 -14 -94q0 -84 72 -84q52 0 140 44 t178 134l-30 40q-84 -62 -122 -62q-10 0 -10 24q0 22 4 40l70 266q18 72 18 96q0 64 -50 64q-54 0 -152 -46q-106 -50 -194 -124zM952 1028v-11q0 -40 26 -61q32 -26 82 -26q60 0 102 38q40 36 40 88q0 96 -100 96q-72 0 -110 -38q-40 -40 -40 -86z" />
<glyph unicode="j" />
<glyph unicode="k" />
<glyph unicode="l" d="M80 24q0 40 20 62l856 854q-4 48 -4 76q0 56 16 124q20 102 52 132l280 280q26 30 80 34q48 0 116 -24q146 -52 272 -176q128 -130 180 -276q20 -64 20 -112q0 -54 -28 -78l-288 -286q-28 -28 -128 -54q-60 -12 -124 -12q-28 0 -76 4l-856 -856q-24 -22 -52 -22h-8 q-16 0 -60 12q-80 26 -156 102q-78 72 -104 158q-8 36 -8 58zM804 588q0 -36 24 -58q24 -24 60 -28q50 0 112 58q40 42 48 90v8v10q0 36 -24 60q-24 22 -56 22q-12 0 -20 -2q-52 -10 -92 -50q-52 -50 -52 -110zM1372 1462q0 -12 4 -42q10 -46 52 -128q44 -78 108 -142 q56 -56 140 -100t128 -52q28 -6 44 -6q12 0 16 4q2 2 2 4.5t-2 5.5q0 14 -4 44q-14 52 -57 128t-103 136q-64 64 -144 106q-66 36 -124 54q-32 8 -36 8l-2 -1l-2 -1q-16 0 -16 -2q-4 -4 -4 -16z" />
<glyph unicode="m" d="M290 -94v1466q0 82 62 148q60 64 148 64h1050q82 0 146 -64q62 -62 62 -148v-1466q0 -90 -62 -150q-66 -62 -146 -62h-1050q-86 0 -148 62t-62 150zM500 -94h1050v1466h-1050v-1466zM730 140v180h588v-180h-588zM730 962v184h588v-184h-588zM734 546v190h588v-190h-588z " />
<glyph unicode="n" d="M410 -204v1638h716l512 -512v-1126h-1228zM614 0h820v820h-410v408h-410v-1228z" />
<glyph unicode="o" d="M204 510v206l242 102q14 42 24 62l-98 240l144 144l244 -96q28 14 58 24l102 242h204l104 -244q36 -14 58 -24l244 102l144 -146l-98 -246q6 -12 22 -56l246 -102v-204l-246 -104q-6 -22 -22 -56l100 -246l-144 -144l-246 98q-22 -12 -56 -24l-102 -242h-204l-104 242 q-36 12 -60 24l-242 -100l-144 144l96 244q-16 36 -24 60zM716 614q0 -126 90 -216t216 -90q128 0 218 90t90 216q0 128 -90 218t-218 90q-126 0 -216 -90t-90 -218z" />
<glyph unicode="p" d="M184 136v1006q0 66 48 118q48 50 120 50h1344q68 0 118 -50t50 -118v-1006q0 -72 -52 -120q-50 -48 -116 -48h-1344q-72 0 -120 48t-48 120zM352 136h1344v1006h-1344v-1006zM520 310v150h420v-150h-420zM520 562v150h420v-150h-420zM520 812v154h420v-154h-420z M1108 310q0 118 8 118q144 42 144 112q0 26 -48 92q-48 64 -48 148v16q0 79 37 122q41 48 115 48q84 0 118 -46t34 -140q0 -80 -46 -148t-46 -92q0 -30 36 -60q34 -30 68 -42l36 -10l12 -118h-420z" />
<glyph unicode="q" />
<glyph unicode="r" d="M204 26v1228q180 0 320 -20q146 -20 236 -52q88 -30 151 -60t89 -52l24 -20q0 2 24 22q12 8 88 48q72 38 152 64q86 28 232 48q158 22 324 22v-1228q-168 0 -324 -22q-154 -22 -236 -50q-86 -30 -149 -60t-87 -52l-24 -22q-12 12 -24 22q-16 12 -84 50q-56 30 -156 62 q-94 30 -232 50q-158 22 -324 22zM408 224q320 -28 512 -130v824q-198 106 -512 132v-826zM1128 94q192 102 512 130v826q-314 -26 -512 -132v-824z" />
<glyph unicode="s" />
<glyph unicode="t" d="M-4 250q156 -148 372 -148q232 0 392 170q-8 -2 -28 -2l-72 18q-48 24 -48 70q0 56 84 92q-16 -2 -40 -2q-56 0 -112 26q-68 32 -104 104q46 50 144 56q-200 48 -232 210q58 16 108 16h20q-82 46 -128 106q-48 61 -48 131v11v16q308 -116 528 -238q68 -42 156 -128 q68 184 136 308q74 132 184 202q-4 -38 -32 -64q70 66 160 78q-4 -48 -108 -84l52 20q44 16 68 24q28 8 52 8q32 0 32 -24q0 -16 -36 -32q-44 -20 -84 -32q-56 -16 -60 -18q16 2 40 2q144 0 252 -106q122 -124 156 -292q36 -12 72 -12q104 0 172 38q-28 -60 -92 -96 q-64 -38 -136 -40q70 -30 172 -30q32 0 64 6q-86 -94 -236 -94h-12q-74 -310 -364 -500q-286 -188 -620 -188q-250 0 -464 108q-216 110 -360 310z" />
<glyph unicode="u" d="M228 82q0 96 68 164q68 70 164 70q100 0 170 -70t70 -164q0 -100 -70 -170t-170 -70q-96 0 -164 70q-68 68 -68 170zM228 690v246q452 0 772 -320t320 -774h-244q0 350 -252 600q-248 248 -596 248zM228 1188v248q656 0 1124 -468t468 -1126h-252q0 560 -392 952 q-392 394 -948 394z" />
<glyph unicode="v" d="M324 544v6v6v5v5q10 62 60 98q38 26 84 26q16 0 24 -2q60 -10 92 -54l248 -326l620 998q32 52 92 64q4 2 18 4t18 2q40 0 76 -24q50 -30 64 -90q0 -4 1 -12t2 -14t1 -10q0 -40 -24 -76l-728 -1178q-44 -66 -116 -66h-4h-8q-70 0 -116 58l-372 494q-32 36 -32 86z" />
<glyph unicode="w" d="M532 218q0 54 40 90l288 330l-288 332q-40 32 -40 88q0 52 36 88q40 38 92 38q48 0 88 -38l280 -318l276 318q36 38 88 38q54 0 88 -38q36 -36 36 -92q0 -54 -36 -84l-288 -332l288 -330q36 -36 36 -92q0 -54 -36 -84q-34 -38 -85 -38t-91 38l-276 314l-280 -314 q-36 -38 -88 -38t-88 38q-40 36 -40 86z" />
<glyph unicode="x" />
<glyph unicode="y" d="M326 64q0 64 10 238q6 82 64 130q58 50 138 52q142 8 486 8t488 -8q80 -2 138 -52q58 -48 64 -130q8 -138 8 -238q0 -98 -8 -236q-6 -82 -64 -130q-58 -50 -138 -52q-144 -8 -488 -8q-342 0 -486 8q-80 2 -138 52q-58 48 -64 130q-10 174 -10 236zM436 278h98v-480h94 v480h100v82h-292v-82zM446 1276h120l76 -278h8l72 278h120l-90 -270q-2 -8 -9 -25t-9 -21q-12 -32 -16 -46q-8 -28 -12 -44v-290h-118v276q-2 20 -48 140zM726 -136q0 -72 60 -72q50 0 98 52v-46h84v414h-84v-314q-28 -32 -50 -32t-22 28v318h-86v-348zM836 710v266 q0 64 46 98q44 32 110 32q70 -6 104 -36q44 -38 44 -96v-266q0 -68 -42 -104t-110 -36q-70 0 -110 38q-42 38 -42 104zM944 700q0 -42 44 -42q46 0 46 42v280q0 16 -16 28q-12 10 -30 10q-20 0 -30 -10q-14 -14 -14 -28v-280zM1052 -202h84v32q36 -38 80 -38q78 0 78 92v230 q0 104 -82 104q-44 0 -76 -38v180h-84v-562zM1136 -124v260q16 16 36 16q34 0 34 -42v-218q0 -34 -28 -34q-24 0 -42 18zM1228 666v428h104v-394q0 -34 28 -34q30 0 64 40v388h104v-514h-104v58q-60 -64 -122 -64q-74 0 -74 92zM1358 -84q0 -60 32 -94q34 -36 90 -36 q126 0 126 130v30h-86v-20v-26q0 -2 -4 -18q-4 -12 -12 -18q-6 -4 -22 -4t-26 10t-10 20v28v78h160v104q0 60 -30 92t-90 32q-54 0 -92 -34q-36 -34 -36 -90v-184zM1446 60v46q0 44 38 44q36 0 36 -44v-46h-74z" />
<glyph unicode="z" />
<glyph unicode="{" />
<glyph unicode="|" />
<glyph unicode="}" />
<glyph unicode="~" d="M204 0v1228l204 206v-1434h1436l-204 -204h-1232h-204v204zM616 204v410l204 206l204 -206l408 410l412 -410v-410h-1228z" />
<glyph />
<glyph />
<glyph />
<glyph />
<glyph />
<glyph unicode="&#x85;" />
<glyph />
<glyph />
<glyph />
<glyph />
<glyph />
<glyph />
<glyph />
<glyph />
<glyph />
<glyph />
<glyph />
<glyph />
<glyph />
<glyph />
<glyph />
<glyph />
<glyph />
<glyph />
<glyph />
<glyph />
<glyph />
<glyph />
<glyph />
<glyph />
<glyph />
<glyph />
<glyph unicode="&#xa0;" />
<glyph unicode="&#xa1;" />
<glyph unicode="&#xa2;" />
<glyph unicode="&#xa3;" />
<glyph unicode="&#xa4;" />
<glyph unicode="&#xa5;" />
<glyph unicode="&#xa6;" />
<glyph unicode="&#xa7;" />
<glyph unicode="&#xa8;" />
<glyph unicode="&#xa9;" />
<glyph unicode="&#xaa;" />
<glyph unicode="&#xab;" />
<glyph unicode="&#xac;" />
<glyph unicode="&#xad;" />
<glyph unicode="&#xae;" />
<glyph unicode="&#xaf;" />
<glyph unicode="&#xb0;" />
<glyph unicode="&#xb1;" />
<glyph unicode="&#xb2;" />
<glyph unicode="&#xb3;" />
<glyph unicode="&#xb4;" />
<glyph unicode="&#xb5;" />
<glyph unicode="&#xb6;" />
<glyph unicode="&#xb7;" />
<glyph unicode="&#xb8;" />
<glyph unicode="&#xb9;" />
<glyph unicode="&#xba;" />
<glyph unicode="&#xbb;" />
<glyph unicode="&#xbc;" />
<glyph unicode="&#xbd;" />
<glyph unicode="&#xbe;" />
<glyph unicode="&#xbf;" />
<glyph unicode="&#xc0;" />
<glyph unicode="&#xc1;" />
<glyph unicode="&#xc2;" />
<glyph unicode="&#xc3;" />
<glyph unicode="&#xc4;" />
<glyph unicode="&#xc5;" />
<glyph unicode="&#xc6;" />
<glyph unicode="&#xc7;" />
<glyph unicode="&#xc8;" />
<glyph unicode="&#xc9;" />
<glyph unicode="&#xca;" />
<glyph unicode="&#xcb;" />
<glyph unicode="&#xcc;" />
<glyph unicode="&#xcd;" />
<glyph unicode="&#xce;" />
<glyph unicode="&#xcf;" />
<glyph unicode="&#xd0;" />
<glyph unicode="&#xd1;" />
<glyph unicode="&#xd2;" />
<glyph unicode="&#xd3;" />
<glyph unicode="&#xd4;" />
<glyph unicode="&#xd5;" />
<glyph unicode="&#xd6;" />
<glyph unicode="&#xd7;" />
<glyph unicode="&#xd8;" />
<glyph unicode="&#xd9;" />
<glyph unicode="&#xda;" />
<glyph unicode="&#xdb;" />
<glyph unicode="&#xdc;" />
<glyph unicode="&#xdd;" />
<glyph unicode="&#xde;" />
<glyph unicode="&#xdf;" />
<glyph unicode="&#xe0;" horiz-adv-x="422" d="M-4 -54l202 834h148l-200 -834h-150zM232 1016q0 50 32 80t72 30q38 0 64 -23t26 -65q0 -48 -34 -78t-72 -30t-63 23t-25 63z" />
<glyph unicode="&#xe1;" horiz-adv-x="1070" d="M148 500q0 94 29 171t85 132t137 85t183 30q42 0 89 -4t92 -11t86 -15t73 -18v-716q0 -210 -106 -311t-328 -101q-76 0 -154 14t-144 36l42 202q56 -22 118 -35t142 -13q104 0 147 45t43 117v30q-40 -16 -81 -25t-89 -9q-178 0 -271 104t-93 292zM394 500 q0 -202 162 -202q38 0 70 10t56 22v386q-18 2 -42 5t-58 3q-94 0 -141 -63t-47 -161z" />
<glyph unicode="&#xe2;" horiz-adv-x="1110" d="M90 778v216h930v-216h-338v-906h-254v906h-338z" />
<glyph unicode="&#xe3;" horiz-adv-x="1888" d="M142 198v374l264 -188zM568 -18h1178v-374h-1178v374zM568 198v374h1178v-374h-1178zM568 786v374h1178v-374h-1178z" />
<glyph unicode="&#xe4;" horiz-adv-x="1888" d="M140 -206q0 56 40 96t94 40t94 -40t40 -96q0 -54 -40 -94t-94 -40t-94 40t-40 94zM140 384q0 56 40 95t94 39t94 -39t40 -95t-40 -95t-94 -39t-94 39t-40 95zM140 974q0 54 40 94t94 40t94 -40t40 -94t-40 -94t-94 -40t-94 40t-40 94zM570 -18h1178v-374h-1178v374z M570 198v374h1178v-374h-1178zM570 786v374h1178v-374h-1178z" />
<glyph unicode="&#xe5;" horiz-adv-x="1890" d="M146 208q0 50 29 86t61 52t59 41t27 53q0 22 -13 35t-35 13q-52 0 -54 -72h-66q0 60 32 96t92 36q48 0 81 -28t33 -76q0 -44 -29 -72t-71 -54t-58 -52h160v-58h-248zM146 -254h66q0 -66 56 -66q24 0 40 14t16 39t-17 38t-43 11h-16v48q70 -4 70 42q0 20 -13 31t-35 11 q-50 0 -50 -58h-66q2 52 33 82t83 30q46 0 79 -23t33 -67q0 -24 -13 -43t-33 -25q60 -14 60 -78q0 -50 -37 -79t-89 -29q-56 0 -90 31t-34 85v6zM176 1006v50q86 0 98 68h56v-338h-74v220h-80zM568 -18h1176v-374h-1176v374zM568 198v374h1176v-374h-1176zM568 786v374h1176 v-374h-1176z" />
<glyph unicode="&#xe6;" horiz-adv-x="1910" d="M64 -126q0 30 22 51t54 21h1632q30 0 52 -21t22 -51v-112q0 -30 -22 -52t-52 -22h-1632q-32 0 -54 22t-22 52v112zM64 170v112q0 32 22 53t54 21h1038q30 0 52 -21t22 -53v-112q0 -32 -22 -53t-52 -21h-1038q-32 0 -54 21t-22 53zM64 578v112q0 32 22 53t54 21h1484 q30 0 52 -21t22 -53v-112q0 -32 -22 -52t-52 -20h-1484q-32 0 -54 20t-22 52zM64 986v114q0 28 22 50t54 22h890q30 0 52 -22t22 -50v-114q0 -30 -22 -51t-52 -21h-890q-32 0 -54 21t-22 51z" />
<glyph unicode="&#xe7;" horiz-adv-x="1910" d="M64 -126q0 30 22 51t54 21h1632q30 0 52 -21t22 -51v-112q0 -30 -22 -52t-52 -22h-1632q-32 0 -54 22t-22 52v112zM140 578v112q0 32 20 53t52 21h1486q32 0 53 -21t21 -53v-112q0 -32 -21 -52t-53 -20h-1486q-32 0 -52 20t-20 52zM360 170v112q0 32 22 53t54 21h1040 q30 0 52 -21t20 -53v-112q0 -32 -21 -53t-51 -21h-1040q-32 0 -54 21t-22 53zM436 986v114q0 28 21 50t53 22h890q32 0 54 -22t22 -50v-114q0 -30 -22 -51t-54 -21h-890q-32 0 -53 21t-21 51z" />
<glyph unicode="&#xe8;" horiz-adv-x="1910" d="M64 -126q0 30 22 51t54 21h1632q30 0 52 -21t22 -51v-112q0 -30 -22 -52t-52 -22h-1632q-32 0 -54 22t-22 52v112zM212 578v112q0 32 22 53t54 21h1484q30 0 52 -21t22 -53v-112q0 -32 -22 -52t-52 -20h-1484q-32 0 -54 20t-22 52zM658 170v112q0 32 22 53t54 21h1038 q30 0 52 -21t22 -53v-112q0 -32 -22 -53t-52 -21h-1038q-32 0 -54 21t-22 53zM806 986v114q0 28 22 50t54 22h890q30 0 52 -22t22 -50v-114q0 -30 -22 -51t-52 -21h-890q-32 0 -54 21t-22 51z" />
<glyph unicode="&#xe9;" horiz-adv-x="1910" d="M64 -126q0 30 22 51t54 21h1632q30 0 52 -21t22 -51v-112q0 -30 -22 -52t-52 -22h-1632q-32 0 -54 22t-22 52v112zM64 170v112q0 32 22 53t54 21h1632q30 0 52 -21t22 -53v-112q0 -32 -22 -53t-52 -21h-1632q-32 0 -54 21t-22 53zM64 578v112q0 32 22 53t54 21h1632 q30 0 52 -21t22 -53v-112q0 -32 -22 -52t-52 -20h-1632q-32 0 -54 20t-22 52zM64 986v114q0 28 22 50t54 22h1632q30 0 52 -22t22 -50v-114q0 -30 -22 -51t-52 -21h-1632q-32 0 -54 21t-22 51z" />
<glyph unicode="&#xea;" horiz-adv-x="798" d="M42 -42h714v-112h-714v112zM106 68l26 128q26 -8 82 -28t150 -20q92 0 136 24t44 78t-44 86t-142 72q-48 20 -93 40t-77 47t-51 66t-19 95q0 110 82 175t224 65q34 0 69 -4t66 -10t54 -12t37 -10l-28 -128q-24 12 -75 26t-123 14q-64 0 -110 -25t-46 -79q0 -26 10 -47 t32 -38t54 -32t76 -31q60 -22 107 -43t79 -50t50 -70t18 -101q0 -116 -86 -175t-244 -59q-110 0 -173 19t-85 27z" />
<glyph unicode="&#xeb;" />
<glyph unicode="&#xec;" />
<glyph unicode="&#xed;" />
<glyph unicode="&#xee;" />
<glyph unicode="&#xef;" />
<glyph unicode="&#xf0;" />
<glyph unicode="&#xf1;" />
<glyph unicode="&#xf2;" />
<glyph unicode="&#xf3;" />
<glyph unicode="&#xf4;" />
<glyph unicode="&#xf5;" />
<glyph unicode="&#xf6;" />
<glyph unicode="&#xf7;" />
<glyph unicode="&#xf8;" />
<glyph unicode="&#xf9;" />
<glyph unicode="&#xfa;" />
<glyph unicode="&#xfb;" />
<glyph unicode="&#xfc;" />
<glyph unicode="&#xfd;" />
<glyph unicode="&#xfe;" />
<glyph unicode="&#xff;" />
<glyph unicode="&#x152;" horiz-adv-x="4096" d="M184 822q0 30 12 48q16 22 68 22h1522q56 0 68 -22q10 -16 10 -48v-16l-72 -754q-2 -42 -18 -64q-14 -20 -72 -20h-1354q-56 0 -70 20q-16 24 -22 64l-70 754q0 2 -1 8t-1 8zM326 1008l26 218q6 36 32 60q28 24 60 24h276q84 0 144 -60l48 -48q60 -60 144 -60h572 q36 0 64 -20t38 -48l16 -66h-1420z" />
<glyph unicode="&#x153;" horiz-adv-x="4096" d="M204 510v206l242 102q14 42 24 62l-98 240l144 144l244 -96q28 14 58 24l102 242h204l104 -244q36 -14 58 -24l244 102l144 -146l-98 -246q6 -12 22 -56l246 -102v-204l-246 -104q-6 -22 -22 -56l100 -246l-144 -144l-246 98q-22 -12 -56 -24l-102 -242h-204l-104 242 q-36 12 -60 24l-242 -100l-144 144l96 244q-16 36 -24 60zM716 614q0 -126 90 -216t216 -90q128 0 218 90t90 216q0 128 -90 218t-218 90q-126 0 -216 -90t-90 -218z" />
<glyph unicode="&#x2c6;" d="M184 294q0 60 56 90l268 182h164l-284 -222h296q18 0 20 -10l72 -188h500l68 188q8 10 20 10h296l-284 222h168l264 -182q56 -32 56 -88q0 -8 -4 -32l-44 -258q-8 -36 -36 -56q-32 -22 -68 -22h-1368q-84 0 -108 78l-48 258q-4 20 -4 30zM572 928l452 426l456 -426h-252 v-414h-404v414h-252z" />
<glyph unicode="&#x2dc;" d="M-1144 326v1228l204 206v-1434h1436l-204 -204h-1232h-204v204zM-732 530v410l204 206l204 -206l408 410l412 -410v-410h-1228z" />
<glyph unicode="&#x2000;" horiz-adv-x="880" />
<glyph unicode="&#x2001;" horiz-adv-x="1760" />
<glyph unicode="&#x2002;" horiz-adv-x="880" />
<glyph unicode="&#x2003;" horiz-adv-x="1760" />
<glyph unicode="&#x2004;" horiz-adv-x="586" />
<glyph unicode="&#x2005;" horiz-adv-x="440" />
<glyph unicode="&#x2006;" horiz-adv-x="292" />
<glyph unicode="&#x2007;" horiz-adv-x="292" />
<glyph unicode="&#x2008;" horiz-adv-x="220" />
<glyph unicode="&#x2009;" horiz-adv-x="352" />
<glyph unicode="&#x200a;" horiz-adv-x="96" />
<glyph unicode="&#x2010;" d="M204 614q0 224 110 412t298 298t412 110t412 -110t298 -298t110 -412q0 -222 -110 -410q-112 -190 -298 -300q-184 -108 -412 -108t-412 108q-186 110 -298 300q-110 188 -110 410zM614 512h820v204h-820v-204z" />
<glyph unicode="&#x2011;" d="M204 614q0 224 110 412t298 298t412 110t412 -110t298 -298t110 -412q0 -222 -110 -410q-112 -190 -298 -300q-184 -108 -412 -108t-412 108q-186 110 -298 300q-110 188 -110 410zM614 512h820v204h-820v-204z" />
<glyph unicode="&#x2012;" d="M204 614q0 224 110 412t298 298t412 110t412 -110t298 -298t110 -412q0 -222 -110 -410q-112 -190 -298 -300q-184 -108 -412 -108t-412 108q-186 110 -298 300q-110 188 -110 410zM614 512h820v204h-820v-204z" />
<glyph unicode="&#x2013;" horiz-adv-x="1024" d="M204 -204v1638h616v-1638h-616z" />
<glyph unicode="&#x2014;" d="M204 -204v1638h1640v-1638h-1640z" />
<glyph unicode="&#x2019;" d="M542 372l482 484l482 -484h-964z" />
<glyph unicode="&#x202f;" horiz-adv-x="352" />
<glyph unicode="&#x2039;" d="M354 614l1024 1024l316 -314l-708 -710l708 -708l-316 -316z" />
<glyph unicode="&#x203a;" d="M354 -94l708 708l-708 710l316 314l1024 -1024l-1024 -1024z" />
<glyph unicode="&#x205f;" horiz-adv-x="440" />
<glyph unicode="&#x2122;" horiz-adv-x="4096" d="M352 136v502h168v-502h504v-168h-504q-72 0 -120 48t-48 120zM688 472v670q0 72 48 120t116 48h676q68 0 118 -50t50 -118v-670q0 -72 -52 -120q-50 -48 -116 -48h-672q-72 0 -120 48t-48 120zM856 472h672v670h-672v-670z" />
<glyph unicode="&#xe000;" horiz-adv-x="500" d="M0 0v0v0v0v0z" />
<glyph unicode="&#xfb01;" horiz-adv-x="4096" d="M2300 630v11q0 315 220 537q226 230 540 232h18q312 0 532 -218q232 -228 234 -542v-12q0 -310 -220 -536q-224 -228 -542 -234h-10q-314 0 -538 218q-228 222 -234 544zM2800 632l26 -48q80 58 128 58q12 0 0 -58l-64 -250q-14 -54 -14 -94q0 -84 72 -84q52 0 140 44 t178 134l-30 40q-84 -62 -122 -62q-10 0 -10 24q0 22 4 40l70 266q18 72 18 96q0 64 -50 64q-54 0 -152 -46q-106 -50 -194 -124zM3000 1028v-11q0 -40 26 -61q32 -26 82 -26q60 0 102 38q40 36 40 88q0 96 -100 96q-72 0 -110 -38q-40 -40 -40 -86zM204 -60v1350 q0 60 42 102t102 42h1352q60 0 102 -42t42 -102v-1350q0 -60 -42 -102t-102 -42h-1352q-60 0 -102 42t-42 102zM960 638h132v-654h244v654h192l16 190h-208v58v70v18q0 70 96 70q48 0 104 -16l32 192q-74 26 -232 26q-132 0 -204 -96q-40 -58 -40 -194v-10v-60v-58h-132 v-190z" />
<glyph unicode="&#xfb02;" horiz-adv-x="4096" d="M2128 24q0 40 20 62l856 854q-4 48 -4 76q0 56 16 124q20 102 52 132l280 280q26 30 80 34q48 0 116 -24q146 -52 272 -176q128 -130 180 -276q20 -64 20 -112q0 -54 -28 -78l-288 -286q-28 -28 -128 -54q-60 -12 -124 -12q-28 0 -76 4l-856 -856q-24 -22 -52 -22h-8 q-16 0 -60 12q-80 26 -156 102q-78 72 -104 158q-8 36 -8 58zM2852 588q0 -36 24 -58q24 -24 60 -28q50 0 112 58q40 42 48 90v8v10q0 36 -24 60q-24 22 -56 22q-12 0 -20 -2q-52 -10 -92 -50q-52 -50 -52 -110zM3420 1462q0 -12 4 -42q10 -46 52 -128q44 -78 108 -142 q56 -56 140 -100t128 -52q28 -6 44 -6q12 0 16 4q2 2 2 4.5t-2 5.5q0 14 -4 44q-14 52 -57 128t-103 136q-64 64 -144 106q-66 36 -124 54q-32 8 -36 8l-2 -1l-2 -1q-16 0 -16 -2q-4 -4 -4 -16zM204 -60v1350q0 60 42 102t102 42h1352q60 0 102 -42t42 -102v-1350 q0 -60 -42 -102t-102 -42h-1352q-60 0 -102 42t-42 102zM960 638h132v-654h244v654h192l16 190h-208v58v70v18q0 70 96 70q48 0 104 -16l32 192q-74 26 -232 26q-132 0 -204 -96q-40 -58 -40 -194v-10v-60v-58h-132v-190z" />
<glyph unicode="&#xfb03;" horiz-adv-x="6144" d="M4348 630v11q0 315 220 537q226 230 540 232h18q312 0 532 -218q232 -228 234 -542v-12q0 -310 -220 -536q-224 -228 -542 -234h-10q-314 0 -538 218q-228 222 -234 544zM4848 632l26 -48q80 58 128 58q12 0 0 -58l-64 -250q-14 -54 -14 -94q0 -84 72 -84q52 0 140 44 t178 134l-30 40q-84 -62 -122 -62q-10 0 -10 24q0 22 4 40l70 266q18 72 18 96q0 64 -50 64q-54 0 -152 -46q-106 -50 -194 -124zM5048 1028v-11q0 -40 26 -61q32 -26 82 -26q60 0 102 38q40 36 40 88q0 96 -100 96q-72 0 -110 -38q-40 -40 -40 -86zM2252 -60v1350 q0 60 42 102t102 42h1352q60 0 102 -42t42 -102v-1350q0 -60 -42 -102t-102 -42h-1352q-60 0 -102 42t-42 102zM3008 638h132v-654h244v654h192l16 190h-208v58v70v18q0 70 96 70q48 0 104 -16l32 192q-74 26 -232 26q-132 0 -204 -96q-40 -58 -40 -194v-10v-60v-58h-132 v-190zM204 -60v1350q0 60 42 102t102 42h1352q60 0 102 -42t42 -102v-1350q0 -60 -42 -102t-102 -42h-1352q-60 0 -102 42t-42 102zM960 638h132v-654h244v654h192l16 190h-208v58v70v18q0 70 96 70q48 0 104 -16l32 192q-74 26 -232 26q-132 0 -204 -96q-40 -58 -40 -194 v-10v-60v-58h-132v-190z" />
<glyph unicode="&#xfb04;" horiz-adv-x="6144" d="M4176 24q0 40 20 62l856 854q-4 48 -4 76q0 56 16 124q20 102 52 132l280 280q26 30 80 34q48 0 116 -24q146 -52 272 -176q128 -130 180 -276q20 -64 20 -112q0 -54 -28 -78l-288 -286q-28 -28 -128 -54q-60 -12 -124 -12q-28 0 -76 4l-856 -856q-24 -22 -52 -22h-8 q-16 0 -60 12q-80 26 -156 102q-78 72 -104 158q-8 36 -8 58zM4900 588q0 -36 24 -58q24 -24 60 -28q50 0 112 58q40 42 48 90v8v10q0 36 -24 60q-24 22 -56 22q-12 0 -20 -2q-52 -10 -92 -50q-52 -50 -52 -110zM5468 1462q0 -12 4 -42q10 -46 52 -128q44 -78 108 -142 q56 -56 140 -100t128 -52q28 -6 44 -6q12 0 16 4q2 2 2 4.5t-2 5.5q0 14 -4 44q-14 52 -57 128t-103 136q-64 64 -144 106q-66 36 -124 54q-32 8 -36 8l-2 -1l-2 -1q-16 0 -16 -2q-4 -4 -4 -16zM2252 -60v1350q0 60 42 102t102 42h1352q60 0 102 -42t42 -102v-1350 q0 -60 -42 -102t-102 -42h-1352q-60 0 -102 42t-42 102zM3008 638h132v-654h244v654h192l16 190h-208v58v70v18q0 70 96 70q48 0 104 -16l32 192q-74 26 -232 26q-132 0 -204 -96q-40 -58 -40 -194v-10v-60v-58h-132v-190zM204 -60v1350q0 60 42 102t102 42h1352 q60 0 102 -42t42 -102v-1350q0 -60 -42 -102t-102 -42h-1352q-60 0 -102 42t-42 102zM960 638h132v-654h244v654h192l16 190h-208v58v70v18q0 70 96 70q48 0 104 -16l32 192q-74 26 -232 26q-132 0 -204 -96q-40 -58 -40 -194v-10v-60v-58h-132v-190z" />
</font>
</defs>
</svg>
